<svg
   width="48"
   height="48"
   viewBox="0 0 12.7 12.7"
   version="1.1"
   id="svg5"
   xmlns="http://www.w3.org/2000/svg">
  <defs
     id="defs2">
    <clipPath
       clipPathUnits="userSpaceOnUse"
       id="clipPath44715">
      <rect
         style="fill:#232530;fill-opacity:1;stroke-width:0.0928769;paint-order:stroke fill markers"
         id="rect44717"
         width="175.74054"
         height="175.74054"
         x="-147.06123"
         y="378.61862"
         clip-path="url(#clipPath35028)"
         transform="translate(2.1481883,-223.41265)" />
    </clipPath>
    <clipPath
       clipPathUnits="userSpaceOnUse"
       id="clipPath44715-5">
      <rect
         style="fill:#232530;fill-opacity:1;stroke-width:0.0928769;paint-order:stroke fill markers"
         id="rect44717-2"
         width="175.74054"
         height="175.74054"
         x="-147.06123"
         y="378.61862"
         clip-path="url(#clipPath35028)"
         transform="translate(2.1481883,-223.41265)" />
    </clipPath>
  </defs>
  <g
     id="layer1">
    <g
       id="g1061"
       transform="matrix(0.25,0,0,0.25,-17.528944,-10.95097)">
      <circle
         style="fill:#282a36;fill-opacity:1;stroke-width:0.0591705;paint-order:stroke fill markers"
         id="circle1538"
         cx="95.515778"
         cy="69.20388"
         r="25.4" />
      <g
         id="g1536"
         transform="matrix(0.33138775,0,0,0.33131724,14.09853,112.98397)"
         style="fill:#ff79c6;fill-opacity:1">
        <path
           style="fill:#ff79c6;fill-opacity:1;stroke-width:0.0731814;paint-order:stroke fill markers"
           d="m 246.82849,-113.2436 c -0.57917,-0.38673 -0.75697,-1.83745 -0.95718,-7.81016 -0.19629,-5.85503 -0.0164,-11.59174 0.46535,-14.8372 0.59277,-3.99379 1.28281,-6.61597 1.88426,-7.16027 0.19428,-0.17583 1.11852,-0.37232 3.18031,-0.67615 3.26245,-0.48075 4.49072,-0.80393 5.50437,-1.4483 1.19309,-0.75843 1.04815,-0.82074 -2.28941,-0.98422 -2.79871,-0.13708 -3.03546,-0.17105 -3.80024,-0.54521 -1.4228,-0.69611 -2.51505,-2.27982 -2.88909,-4.18908 -0.29221,-1.49144 -0.19765,-7.72254 0.2332,-15.367 0.44596,-7.91254 0.63376,-16.81256 0.38783,-18.37924 -0.0894,-0.56941 -0.32885,-1.59029 -0.53216,-2.26862 -0.69236,-2.31029 -1.24394,-4.59695 -1.48021,-6.13648 -0.24649,-1.60606 -0.33618,-5.80179 -0.13734,-6.4238 l 0.11181,-0.34976 1.99612,0.10126 c 3.73475,0.18946 6.61059,0.54212 10.41199,1.27682 1.46182,0.28253 2.35498,0.52612 2.51145,0.68494 0.13356,0.13557 0.78425,1.2015 1.44598,2.36874 2.52907,4.46107 3.44119,5.39618 8.50011,8.71427 3.08856,2.02575 4.61234,3.37025 5.70693,5.03545 1.8983,2.88791 4.01984,7.89478 5.05793,11.9369 0.32099,1.24982 0.38621,1.88056 0.4464,4.3177 0.13939,5.64232 -0.83555,9.6579 -2.89083,11.90671 -1.21666,1.33121 -2.39866,1.73424 -6.50764,2.21891 -2.65375,0.31302 -3.27486,0.51544 -4.09358,1.33417 -0.89601,0.89601 -1.09659,1.32471 -1.98316,4.23822 -0.41436,1.36175 -0.95507,2.85532 -1.20155,3.31904 -0.63289,1.19066 -2.10302,2.51556 -5.09418,4.591 -3.0734,2.13251 -3.87356,2.83136 -4.7483,4.14715 -1.11445,1.67637 -2.71134,5.21692 -2.71134,6.01145 0,0.53464 0.2676,0.29237 1.25854,-1.13943 2.6085,-3.76893 4.32859,-5.27499 8.15626,-7.1415 2.42295,-1.18151 3.07041,-1.73078 5.07413,-4.30459 1.4819,-1.90353 1.88666,-2.33622 2.46454,-2.63459 0.2958,-0.15272 0.42272,-0.12123 0.95136,0.236 0.8427,0.56947 4.06789,3.8168 5.25801,5.29412 1.0623,1.31863 2.25073,3.51735 2.3976,4.43585 0.1292,0.80803 0.30994,0.8309 0.42643,0.054 0.2041,-1.36108 -0.70046,-4.9771 -1.51963,-6.07486 -0.21027,-0.28175 -1.17883,-1.36849 -2.15233,-2.41499 -2.98144,-3.20487 -3.70795,-4.30161 -3.82366,-5.77216 -0.12178,-1.54768 0.26482,-1.82287 3.50724,-2.49658 3.43421,-0.71356 4.74157,-1.28718 6.28817,-2.75906 0.67119,-0.63878 1.00475,-1.1346 1.63158,-2.42524 1.44007,-2.96514 1.75159,-4.5373 1.75699,-8.86724 0.004,-3.33658 -0.18354,-4.68347 -0.93784,-6.72928 -0.23445,-0.63583 -1.60454,-3.90995 -3.04464,-7.27581 -1.4401,-3.36587 -3.09851,-7.32592 -3.68536,-8.80012 -0.70099,-1.76089 -1.17337,-2.74996 -1.37705,-2.88324 -0.17052,-0.11157 -1.099,-0.36987 -2.06325,-0.57399 -2.81733,-0.59639 -4.8401,-1.73358 -6.78854,-3.81647 -0.88519,-0.94628 -2.44417,-3.11229 -2.32548,-3.23098 0.034,-0.034 1.01108,0.2569 2.17133,0.6464 8.35348,2.80427 16.00811,7.11724 22.46966,12.66041 l 1.5943,1.36767 0.64389,1.59708 c 3.13172,7.76756 3.21808,8.13273 3.52769,14.91607 0.0882,1.93199 0.17735,3.6115 0.19815,3.73224 0.0565,0.32784 0.94361,-1.48479 1.19038,-2.43224 0.12044,-0.46245 0.31306,-2.53487 0.43879,-4.7212 0.12327,-2.14331 0.26567,-4.46997 0.31644,-5.17035 l 0.0923,-1.27342 1.02172,1.27342 c 3.41111,4.25147 7.86551,11.53021 7.86551,12.85268 0,0.93727 -0.42654,4.30907 -0.66445,5.25244 -0.81219,3.22073 -2.62025,5.80299 -5.27781,7.53788 -1.38898,0.90672 -2.94838,1.50762 -5.3808,2.07345 -2.80421,0.65229 -3.45956,0.84402 -3.45956,1.01214 0,0.24874 1.45042,0.83444 3.20892,1.2958 0.91075,0.23895 1.69627,0.4748 1.74559,0.52412 0.24611,0.24611 -1.89574,5.53875 -3.01969,7.46191 -2.31886,3.9677 -6.5173,8.28175 -9.54085,9.80362 -2.09492,1.05445 -5.54993,2.02114 -10.17701,2.84747 -3.88274,0.6934 -5.77377,0.90561 -6.44999,0.72384 -1.27614,-0.34304 -2.30029,-1.20311 -3.50655,-2.94472 -0.31985,-0.46185 -0.64611,-0.81905 -0.72498,-0.79378 -0.0789,0.0253 -0.25665,0.72427 -0.39502,1.55335 -0.59548,3.56772 -0.8939,3.90813 -6.19424,7.06565 -7.95563,4.73932 -9.01769,5.26966 -9.67463,4.83102 z m 10.22462,-47.02731 c 0.905,-0.40833 2.07356,-0.8436 2.5968,-0.96728 1.29752,-0.30669 3.47274,-0.18418 6.80307,0.38317 2.96302,0.50476 3.14958,0.52059 3.14958,0.26719 0,-0.0996 -0.92806,-1.1032 -2.06235,-2.23015 l -2.06235,-2.049 -0.11694,-5.4173 c -0.12867,-5.95983 -0.13486,-6.00179 -1.10263,-7.45977 -0.69149,-1.04179 -3.16828,-3.9174 -3.64064,-4.22692 -0.44296,-0.29023 -0.67426,-0.311 -0.67704,-0.0608 0,0.10062 0.5261,1.23676 1.1716,2.52475 1.39263,2.77881 1.58226,3.55581 1.71236,7.01622 0.14176,3.77117 -0.2208,5.4372 -1.51128,6.94484 -0.29808,0.34823 -1.56686,1.49883 -2.8195,2.55689 -2.67536,2.25973 -3.52748,3.05425 -3.52748,3.28909 0,0.29958 0.39986,0.19017 2.0868,-0.57095 z"
           id="path1096" />
        <path
           style="fill:#ff79c6;fill-opacity:1;stroke-width:0.0517469;paint-order:stroke fill markers"
           d="m 247.14123,-64.481989 c 0,-0.02273 0.0703,-0.177366 0.15632,-0.343617 0.35409,-0.684718 1.03645,-0.808998 5.12188,-0.932852 4.8155,-0.145989 7.00019,-0.275296 7.7103,-0.456356 1.01868,-0.259739 3.19993,-1.417495 4.21429,-2.236832 1.17326,-0.94769 2.0961,-1.995845 4.02211,-4.568323 2.35585,-3.146575 3.46697,-4.158577 8.06691,-7.34723 2.0452,-1.417712 3.07761,-2.051793 3.77452,-2.318205 1.04145,-0.398134 3.87469,-0.205941 8.58999,0.5827 1.02457,0.171365 1.90185,0.323344 1.94947,0.337732 0.0476,0.01439 -0.34824,0.400148 -0.87971,0.85725 -10.25919,8.823849 -22.68894,14.321796 -36.10247,15.968893 -2.03087,0.249378 -6.62361,0.566147 -6.62361,0.45684 z"
           id="path1135" />
        <path
           style="fill:#ff79c6;fill-opacity:1;stroke-width:0.0517469;paint-order:stroke fill markers"
           d="m 241.13858,-64.583353 c -4.92572,-0.361059 -10.78032,-1.417437 -14.69613,-2.651707 l -0.7762,-0.244661 0.98319,-0.317812 c 2.5373,-0.820171 6.06613,-1.265851 10.04162,-1.26823 2.95712,-0.0019 4.20669,0.265473 4.91686,1.05155 0.5711,0.632129 0.7397,1.123444 0.81963,2.3886 l 0.0703,1.112562 -0.44678,-0.01807 c -0.24572,-0.0099 -0.65635,-0.03344 -0.91249,-0.05222 z"
           id="path1174" />
        <path
           style="fill:#ff79c6;fill-opacity:1;stroke-width:0.0553855;paint-order:stroke fill markers"
           d="m 250.31546,-69.112769 c -1.39456,-0.383889 -2.19868,-1.132609 -2.60556,-2.426033 -0.23217,-0.738082 -0.24638,-0.972767 -0.23868,-3.941778 0.0111,-4.284324 0.294,-7.769268 0.70681,-8.707528 0.11012,-0.250303 0.38954,-0.599231 0.62092,-0.775396 0.39193,-0.298394 0.48562,-0.319545 1.37012,-0.309295 0.69686,0.0081 1.4677,0.133303 2.89793,0.470776 1.07167,0.252878 1.98138,0.459774 2.02155,0.459774 0.0402,0 0.073,-0.10383 0.073,-0.230735 0,-0.149238 -0.67479,-0.921959 -1.9105,-2.187726 -1.0508,-1.076343 -2.51841,-2.580073 -3.26142,-3.341624 -1.58318,-1.622708 -2.42649,-2.644777 -2.71153,-3.286291 -0.34271,-0.771393 -0.45788,-2.115114 -0.39214,-4.575966 0.0334,-1.250302 0.11695,-2.597279 0.18569,-2.993289 0.66651,-3.84071 2.86933,-6.65693 8.42222,-10.76747 4.12416,-3.05291 9.14251,-5.97123 10.91094,-6.34503 1.65872,-0.35062 4.29617,-0.15034 5.42776,0.41217 1.27508,0.63383 3.843,2.9693 5.3213,4.83963 1.14954,1.45438 1.36668,1.47286 1.08384,0.0923 -0.0841,-0.41071 -0.4944,-1.80643 -0.91172,-3.10159 -0.84627,-2.62657 -0.97002,-3.17346 -0.79283,-3.50453 0.16452,-0.30742 1.13242,-0.74713 3.55185,-1.61362 5.78244,-2.07092 6.93055,-2.76934 10.41447,-6.33536 3.06917,-3.14151 3.79942,-4.20156 7.08597,-10.28622 3.11192,-5.76141 3.48054,-6.31721 6.09375,-9.18809 0.76155,-0.83664 1.71876,-1.96464 2.12717,-2.50666 1.37036,-1.81878 2.92563,-4.70212 3.13216,-5.80677 l 0.12423,-0.66434 0.51847,1.49512 c 2.30564,6.64868 3.51441,13.3848 3.69972,20.61739 l 0.0699,2.72817 -0.52909,0.98265 c -1.10964,2.06082 -3.14717,4.85307 -4.84767,6.6433 -1.63364,1.71984 -3.62601,3.08885 -5.81282,3.99417 -1.45465,0.6022 -3.56983,1.25611 -4.06315,1.25611 -0.68125,0 -0.99742,-0.55137 -1.62555,-2.83482 -0.513,-1.86484 -0.71202,-2.39667 -0.80457,-2.14987 -0.0343,0.0914 -0.29371,1.68649 -0.5765,3.54467 -1.37573,9.0397 -2.53661,12.34177 -5.28608,15.03578 -1.0909,1.0689 -1.34533,1.26734 -2.49777,1.94835 -1.7099,1.0104 -4.15711,1.86975 -7.49959,2.633498 -3.8971,0.890482 -6.61207,1.153332 -11.0217,1.067073 -2.64255,-0.05169 -2.99746,-0.08095 -3.55732,-0.293248 -1.69386,-0.642316 -3.82286,-2.662483 -5.81787,-5.520463 -1.29961,-1.86174 -1.43494,-1.80121 -0.74763,0.33436 0.22024,0.68427 0.64947,1.84229 0.9539,2.57337 1.24015,2.978437 1.58004,4.440898 1.14406,4.922651 -0.41008,0.453128 -1.93638,0.866756 -3.64702,0.988354 -1.15279,0.08194 -1.32958,0.243273 -0.60521,0.552272 1.00915,0.430477 1.63777,0.515345 3.80312,0.513419 2.29175,-0.0021 2.25693,0.0031 6.09241,-0.901139 2.90671,-0.685287 5.09262,-1.110001 10.68937,-2.076902 7.29136,-1.259666 8.54253,-1.463615 11.92263,-1.943484 1.89093,-0.268452 3.35995,-0.533571 3.73584,-0.674211 1.15959,-0.43385 1.51606,-1.09876 3.62048,-6.75334 2.22578,-5.98063 2.96577,-7.32757 4.59994,-8.37296 0.30916,-0.19775 1.64512,-0.76307 2.96881,-1.25627 2.74314,-1.02206 3.60479,-1.42894 4.58266,-2.16403 0.84876,-0.63802 2.58165,-2.46082 3.49787,-3.67934 0.37478,-0.49843 0.69379,-0.89384 0.70895,-0.87869 0.0151,0.0152 -0.0935,0.7968 -0.24148,1.73701 -1.35337,8.59969 -4.30972,16.76919 -8.77597,24.25134 -0.45458,0.76155 -0.88712,1.467075 -0.9612,1.567833 -0.0896,0.121862 -0.81764,0.337627 -2.17456,0.644446 -1.12194,0.253685 -2.07949,0.48573 -2.12791,0.515657 -0.30356,0.187595 0.1129,0.260808 1.63684,0.287758 l 1.72488,0.0305 -0.92179,1.293646 c -1.9604,2.751227 -3.8037,4.999262 -6.10388,7.444147 l -1.34247,1.426916 -2.49783,-0.06265 c -2.60297,-0.06528 -2.47695,-0.05041 -9.07182,-1.070446 l -2.91856,-0.451418 -1.61454,1.565679 c -1.76589,1.712418 -2.49166,2.324077 -3.16582,2.668 -0.90115,0.459727 -1.46952,0.01855 -3.23657,-2.512184 -2.20491,-3.157812 -3.96843,-5.150845 -4.55771,-5.150845 -0.33891,0 -0.3719,-0.08919 0.6777,1.831822 1.64648,3.01335 2.17199,4.985081 2.16892,8.137554 v 1.273865 l -0.45175,0.830782 c -0.76792,1.412303 -1.64711,2.54404 -3.14521,4.048672 -1.96688,1.975477 -3.56063,3.119967 -5.33254,3.829376 -0.63823,0.255531 -0.7221,0.260299 -5.02452,0.28563 -3.53425,0.0208 -4.48725,-0.005 -4.95691,-0.134305 z"
           id="path1213" />
        <path
           style="fill:#ff79c6;fill-opacity:1;stroke-width:0.0553855;paint-order:stroke fill markers"
           d="m 219.16107,-69.849879 c -1.9063,-0.818552 -5.45304,-2.5771 -7.10703,-3.523814 l -1.18081,-0.67587 -0.5906,-1.006179 c -0.76121,-1.296841 -0.96208,-1.395005 -1.08376,-0.529574 l -0.0625,0.445006 -1.45724,-0.98265 c -0.8015,-0.540456 -1.97289,-1.372671 -2.60313,-1.849363 -1.26955,-0.960273 -3.87149,-3.073257 -3.83051,-3.110682 0.0143,-0.01315 0.98809,-0.230698 2.16379,-0.483471 1.1757,-0.252769 2.59636,-0.609378 3.15698,-0.792464 2.27939,-0.744389 4.55721,-2.334326 7.47782,-5.219573 1.54336,-1.524693 2.34778,-2.528572 2.34778,-2.929959 0,-0.488995 -0.43575,-0.265064 -2.15636,1.108189 -1.57493,1.256977 -2.69168,1.959356 -4.51035,2.836804 -2.67922,1.292628 -5.1308,2.081152 -7.27961,2.341404 -1.82272,0.220755 -2.69134,-0.123163 -3.16217,-1.252016 -0.24646,-0.590899 -0.21283,-1.17135 0.16187,-2.79373 0.18203,-0.788279 0.331,-1.523519 0.331,-1.633871 0,-0.923208 -1.28757,1.417471 -1.94644,3.538402 -0.22228,0.715566 -0.42823,1.375802 -0.45765,1.467186 -0.0605,0.187889 -0.93297,-0.709789 -2.96077,-3.046198 -6.82982,-7.869258 -11.84484,-17.523828 -14.40537,-27.732298 -0.62357,-2.48612 -1.37506,-6.44051 -1.22396,-6.44051 0.12835,0 2.46041,1.59869 3.88009,2.65989 2.97516,2.22395 3.41296,2.83961 5.48748,7.71678 1.63534,3.84461 1.93548,4.34544 3.86361,6.44697 2.20408,2.40232 2.62149,3.08611 2.89496,4.74269 0.20037,1.213573 0.2122,1.252467 0.38116,1.252467 0.0887,0 0.84791,-0.294048 1.68714,-0.653439 0.83924,-0.359388 1.87481,-0.763218 2.30127,-0.897408 2.43401,-0.76582 8.63883,-0.099 14.29181,1.535975 1.85426,0.536281 3.39315,1.037473 6.64012,2.162569 1.33826,0.463714 2.58445,0.841041 2.76929,0.838504 l 0.33607,-0.0046 -0.4431,-0.392123 c -1.60311,-1.418738 -6.10997,-3.721365 -9.49674,-4.852035 -2.01885,-0.674 -4.01145,-1.15726 -7.78351,-1.88776 -4.96602,-0.96172 -6.10865,-1.30454 -8.75088,-2.6255 -2.54331,-1.2715 -4.4884,-2.56622 -5.09641,-3.39237 -0.90961,-1.23594 -1.21182,-2.75634 -1.12744,-5.67204 0.0957,-3.30719 0.61362,-5.03834 2.28423,-7.63529 0.91125,-1.41654 0.89172,-1.64675 -0.0836,-0.98584 -0.70112,0.47511 -2.74198,2.55213 -3.28101,3.33914 -0.30586,0.44659 -0.48811,0.61804 -0.60923,0.57317 -0.41707,-0.15448 -9.76583,-5.37643 -10.41789,-5.81913 -0.21961,-0.14909 -0.26639,-0.31852 -0.36698,-1.32925 -0.12623,-1.26813 -0.17156,-9.3538 -0.0541,-9.65005 0.0666,-0.16803 0.12108,-0.16974 0.63259,-0.0198 0.59148,0.17338 1.02119,0.16625 1.07784,-0.0179 0.0188,-0.0609 -0.32629,-0.31168 -0.76671,-0.55725 l -0.80082,-0.44647 0.0333,-0.60585 c 0.054,-0.98284 0.34533,-3.25361 0.64619,-5.03668 0.32271,-1.91256 1.02224,-5.16674 1.13699,-5.28934 0.0428,-0.0457 1.07223,0.67791 2.28764,1.60806 l 2.20983,1.69119 1.03389,2.04737 c 3.04043,6.02082 4.22732,7.90342 6.49361,10.29979 2.77789,2.93732 4.83563,4.32098 8.15375,5.48266 0.63576,0.22259 2.86787,0.90039 4.96022,1.50623 5.08206,1.47153 6.16027,1.87792 7.67244,2.89196 1.44682,0.97018 2.76913,2.32877 3.14711,3.23341 0.1482,0.35472 0.14896,0.43999 0.006,0.71572 -0.24759,0.47878 -1.21316,1.32184 -4.22709,3.69077 -3.33996,2.62519 -4.50389,3.61395 -4.41793,3.75305 0.13174,0.21314 0.53951,0.0865 2.29695,-0.7132 3.94547,-1.79538 6.79826,-2.61329 8.6028,-2.46647 3.21035,0.26119 12.57694,3.77151 15.93284,5.97113 3.22138,2.11147 5.70463,4.99102 6.60931,7.66414 0.32706,0.96636 0.80164,4.779734 1.33107,10.695847 0.93887,10.490864 0.94049,13.512868 0.008,15.120966 -0.35647,0.614812 -1.33384,1.568815 -1.99652,1.948794 -1.71548,0.983625 -5.34895,0.820854 -6.58399,-0.294952 -0.55436,-0.500825 -0.82532,-1.348735 -1.62568,-5.087171 -0.88763,-4.146068 -1.55139,-6.81243 -1.93906,-7.789367 -0.43788,-1.103561 -1.25375,-2.681915 -1.55149,-3.001481 -0.4554,-0.48882 -0.4767,-0.131461 -0.11276,1.892318 0.65865,3.662863 0.90204,6.489907 0.90204,10.477304 0,2.083988 -0.0265,2.437776 -0.22667,3.032117 -0.25011,0.742432 -0.43225,1.067356 -0.92294,1.646349 -0.88334,1.042321 -2.73444,2.082776 -5.10895,2.871621 -2.04131,0.678156 -1.9541,0.680918 -3.82159,-0.120962 z"
           id="path1252" />
        <path
           style="fill:#ff79c6;fill-opacity:1;stroke-width:0.0553855;paint-order:stroke fill markers"
           d="m 239.39256,-112.48458 c -2.2036,-0.24271 -6.30441,-1.59349 -9.84477,-3.24279 -4.10353,-1.91167 -8.42756,-5.13068 -10.73819,-7.994 -3.19771,-3.9626 -5.1379,-10.97916 -4.63931,-16.77783 0.34888,-4.05761 1.13532,-6.26646 4.18197,-11.74558 1.84809,-3.32362 2.3576,-4.34759 2.87116,-5.77018 l 0.41621,-1.153 0.0445,-2.314 c 0.048,-2.49889 -0.0249,-3.39277 -0.5338,-6.54767 -0.58999,-3.65719 -0.76509,-5.00606 -0.8913,-6.8668 -0.14192,-2.09193 -0.0603,-2.9682 0.40621,-4.36129 0.44149,-1.3183 2.51868,-5.42672 4.37608,-8.65528 1.97038,-3.42492 3.49097,-6.35266 3.59929,-6.93005 0.0662,-0.35282 -0.10822,-1.57052 -0.35034,-2.44614 -0.0619,-0.22374 0.0302,-0.26052 1.57803,-0.63033 3.52451,-0.84209 7.62455,-1.47999 10.78235,-1.67757 0.57878,-0.0362 1.2705,-0.0929 1.53718,-0.12602 l 0.48485,-0.0602 -0.0797,6.23976 -0.0797,6.23976 -0.46053,0.47672 c -0.69924,0.72379 -1.66849,1.15587 -2.73085,1.21736 -0.74572,0.0432 -0.92532,0.017 -1.24618,-0.18124 -0.42032,-0.25978 -1.15327,-1.09502 -2.19427,-2.50059 -0.38526,-0.52017 -0.71462,-0.93164 -0.73187,-0.91437 -0.0172,0.0173 -0.0829,1.20001 -0.14573,2.62832 -0.13337,3.02869 -0.14343,3.08123 -1.54085,8.04107 -1.309,4.64607 -1.63933,5.9655 -1.84269,7.36047 -0.21524,1.47646 -0.34592,4.40794 -0.18963,4.2541 0.0619,-0.0609 0.41616,-1.16713 0.78729,-2.45822 1.17229,-4.07839 2.28894,-6.78022 3.65364,-8.84041 1.15263,-1.74004 2.5582,-2.93543 3.45159,-2.93543 1.14671,0 2.52251,1.89923 2.76852,3.82177 0.41077,3.21003 0.41056,16.08255 0,26.64022 -0.38285,9.83464 -0.37333,11.33637 0.1102,17.39102 0.71795,8.98978 0.74938,14.23963 0.10784,18.01105 -0.2287,1.34457 -0.55946,2.35577 -0.85788,2.62281 -0.25969,0.23237 -1.01222,0.29982 -2.05886,0.18453 z m -4.42465,-14.22426 c -0.0343,-0.21144 -0.50996,-1.44515 -1.05698,-2.74158 -1.45698,-3.45289 -1.68585,-4.24938 -1.95054,-6.78798 -0.15184,-1.45642 -0.21947,-2.97543 -0.50554,-11.35401 -0.11639,-3.40931 -0.17221,-4.09852 -0.332,-4.09852 -0.23751,0 -0.53744,1.60785 -1.38443,7.42165 -0.73628,5.05395 -0.97007,5.98949 -1.67172,6.68945 -0.17647,0.17607 -0.49535,0.39404 -0.70858,0.48438 -0.33782,0.14312 -2.36561,0.33141 -3.82158,0.35485 -0.24371,0.004 -0.51787,0.0571 -0.60926,0.1182 -0.24625,0.16462 0.11872,0.44728 2.05594,1.59225 4.24471,2.50876 4.70125,2.86936 7.00776,5.53518 1.89502,2.19026 2.80651,3.17057 2.94801,3.17057 0.0502,0 0.0632,-0.173 0.0289,-0.38444 z"
           id="path1291" />
        <path
           style="fill:#ff79c6;fill-opacity:1;stroke-width:0.0553855;paint-order:stroke fill markers"
           d="m 205.64702,-130.81576 c -2.41276,-0.36112 -4.98152,-1.15508 -6.97854,-2.15697 -3.74928,-1.88095 -8.19568,-6.64029 -9.38107,-10.04128 -0.28109,-0.80649 -0.30268,-0.99625 -0.30654,-2.69529 -0.004,-1.65754 0.0251,-1.94118 0.31115,-3.0462 0.89088,-3.44258 3.11488,-7.99744 4.43182,-9.07657 0.26064,-0.21358 0.74943,-0.51447 1.0862,-0.66865 1.21708,-0.5572 4.29746,-0.7877 5.12815,-0.38374 0.43336,0.21072 0.79248,0.76167 0.87831,1.34743 0.0382,0.26054 0.19402,1.71676 0.34634,3.23604 0.48876,4.87579 0.95007,7.15167 1.44957,7.15167 0.17312,0 0.18288,-0.14213 0.11589,-1.68926 -0.0402,-0.92909 -0.10491,-2.63635 -0.14375,-3.7939 -0.11369,-3.38776 0.20291,-5.19787 1.17965,-6.74445 0.69246,-1.09645 0.63695,-1.17567 -0.82402,-1.17567 -3.05425,0 -6.85676,-0.61055 -8.24913,-1.32453 l -0.37737,-0.1935 0.0451,-2.20411 c 0.0681,-3.33047 0.0544,-5.11202 -0.0399,-5.20615 -0.21629,-0.21589 -0.14491,-0.40464 -3.0204,7.98674 -2.98516,8.71139 -3.625,10.13028 -4.90834,10.8847 -0.44651,0.2625 -0.62711,0.30142 -1.34646,0.29017 -0.92782,-0.0145 -1.70757,-0.24371 -3.22879,-0.9491 l -0.95801,-0.44422 0.27811,-0.84764 c 1.21721,-3.71033 2.25819,-6.26843 3.90588,-9.59854 4.76367,-9.62758 11.47919,-17.67687 20.21192,-24.22616 1.50318,-1.12735 1.8079,-1.31332 2.04925,-1.25059 0.15592,0.0405 0.43304,0.0819 0.61582,0.0919 0.31123,0.0171 0.34544,-0.0222 0.53946,-0.61939 0.20706,-0.63748 0.20748,-0.63789 1.44002,-1.39915 3.45175,-2.13196 7.13274,-3.99345 10.752,-5.43734 1.435,-0.57249 4.99264,-1.80969 5.55641,-1.9323 l 0.34303,-0.0746 0.073,1.11295 0.0729,1.11295 -0.88276,1.76293 c -1.6919,3.37884 -4.21806,7.54187 -5.81975,9.59074 -1.31363,1.68042 -2.36471,2.48967 -4.53747,3.49348 -1.82242,0.84196 -2.29632,0.93813 -10.07136,2.04379 -2.7913,0.39695 -5.12003,0.74948 -5.17496,0.78342 -0.3257,0.2013 0.14563,0.41088 1.34019,0.59592 0.396,0.0613 1.96617,0.23935 3.48928,0.39556 4.87457,0.49997 6.93189,0.87018 8.64552,1.55574 2.01396,0.80571 2.97908,1.70786 3.99912,3.73826 1.33313,2.65362 1.90254,5.87845 1.78232,10.09433 -0.0891,3.12457 -0.34333,3.67152 -3.24676,6.98533 -3.02008,3.44697 -3.58791,4.24625 -4.22883,5.95258 -0.76102,2.02608 -0.8545,2.6795 -0.85209,5.95605 0.003,2.58401 0.0398,3.22054 0.31673,5.317 0.35899,2.71772 0.43653,4.9443 0.18293,5.25113 -0.40518,0.49016 -0.74694,0.55915 -2.88811,0.58306 -1.32032,0.0147 -2.42358,-0.0332 -3.10161,-0.13463 z"
           id="path1330" />
      </g>
    </g>
  </g>
</svg>
