<?xml version="1.0" encoding="UTF-8" standalone="no"?>
<!-- Created with Inkscape (http://www.inkscape.org/) -->

<svg
   width="96"
   height="96"
   viewBox="0 0 25.399999 25.400001"
   version="1.1"
   id="svg5"
   xmlns:xlink="http://www.w3.org/1999/xlink"
   xmlns="http://www.w3.org/2000/svg"
   xmlns:svg="http://www.w3.org/2000/svg">
  <defs
     id="defs2">
    <linearGradient
       xlink:href="#linearGradient5230"
       id="linearGradient5232"
       x1="-142.37709"
       y1="219.44107"
       x2="-80.343307"
       y2="161.23317"
       gradientUnits="userSpaceOnUse" />
    <linearGradient
       id="linearGradient5230">
      <stop
         style="stop-color:#4a00ff;stop-opacity:1"
         offset="0"
         id="stop5226" />
      <stop
         style="stop-color:#ff79c6;stop-opacity:1"
         offset="1"
         id="stop5228" />
    </linearGradient>
  </defs>
  <g
     id="layer1">
    <g
       id="g5810"
       transform="matrix(0.5,0,0,0.5,68.68085,-81.378665)">
      <path
         id="path2724"
         style="fill:url(#linearGradient5232);fill-opacity:1;stroke-width:1.91642;paint-order:stroke fill markers"
         d="m -86.561702,188.15733 a 25.4,25.4 0 0 1 -25.400008,25.4 25.4,25.4 0 0 1 -25.39999,-25.4 25.4,25.4 0 0 1 25.39999,-25.4 25.4,25.4 0 0 1 25.400008,25.4 z" />
      <path
         style="fill:#232530;fill-opacity:1;stroke-width:0.326947;paint-order:stroke fill markers"
         d="m -99.308976,188.3692 v -17.10799 l -5.136234,5e-4 c -5.97827,5.1e-4 -7.52935,0.041 -9.24522,0.24177 -1.55663,0.1821 -2.86783,0.5775 -4.32097,1.30301 -0.99965,0.4991 -1.61902,0.9268 -2.33137,1.60993 -1.49122,1.43002 -2.32638,3.21298 -2.67543,5.71166 -0.0901,0.64489 -0.0775,2.70362 0.0203,3.33045 0.46742,2.99469 2.00797,5.1933 4.94387,7.05568 0.30656,0.19447 0.59366,0.38471 0.63798,0.42274 0.12348,0.10597 0.0739,0.49763 -0.12648,0.99908 -0.23148,0.57929 -1.51978,3.13857 -3.04817,6.05536 -2.88869,5.5128 -3.82786,7.34419 -3.78714,7.38492 0.0667,0.0667 1.52916,0.0978 4.12595,0.0876 l 2.91081,-0.0114 3.23103,-6.39032 3.23103,-6.39032 2.42823,-2.6e-4 2.42823,-2.5e-4 0.0271,0.83261 c 0.0149,0.45794 0.0561,2.22427 0.0915,3.92517 0.108,5.18221 0.18986,7.8825 0.24151,7.9661 0.0287,0.0465 0.63021,0.0596 3.19439,0.0697 l 3.159024,0.0124 z m -8.931644,-0.88947 c -3.59888,-0.12614 -4.45107,-0.24736 -5.53631,-0.78747 -1.37731,-0.68547 -2.22487,-1.68574 -2.59255,-3.05967 -0.16269,-0.60791 -0.21032,-1.11969 -0.18625,-2.0012 0.0236,-0.86304 0.0975,-1.25024 0.3737,-1.95756 0.46133,-1.18133 1.5039,-2.20833 2.7449,-2.70391 0.83039,-0.33161 2.09906,-0.43183 5.46684,-0.43187 l 2.08694,-3e-5 v 5.51953 5.51953 l -0.55147,-0.0267 c -0.30332,-0.0147 -1.11592,-0.0465 -1.8058,-0.0707 z"
         id="path5616" />
      <path
         style="fill:#f8f8f8;fill-opacity:1;stroke-width:0.326947;paint-order:stroke fill markers"
         d="m -100.72551,187.00145 v -17.10799 l -5.13623,5e-4 c -5.97826,5.1e-4 -7.52934,0.041 -9.24521,0.24177 -1.55663,0.1821 -2.86783,0.5775 -4.32097,1.30301 -0.99965,0.4991 -1.61902,0.9268 -2.33137,1.60993 -1.49122,1.43002 -2.32638,3.21298 -2.67543,5.71166 -0.0901,0.64489 -0.0775,2.70362 0.0203,3.33045 0.46742,2.99469 2.00797,5.1933 4.94387,7.05568 0.30656,0.19447 0.59366,0.38471 0.63798,0.42274 0.12348,0.10597 0.0739,0.49763 -0.12648,0.99908 -0.23148,0.57929 -1.51978,3.13857 -3.04817,6.05536 -2.88869,5.5128 -3.82786,7.34419 -3.78714,7.38492 0.0667,0.0667 1.52916,0.0978 4.12595,0.0876 l 2.91081,-0.0114 3.23103,-6.39032 3.23103,-6.39032 2.42823,-2.6e-4 2.42822,-2.5e-4 0.0271,0.83261 c 0.0149,0.45794 0.0561,2.22427 0.0915,3.92517 0.108,5.18221 0.18986,7.8825 0.24151,7.9661 0.0287,0.0465 0.63021,0.0596 3.19439,0.0697 l 3.15902,0.0124 z m -8.93163,-0.88947 c -3.59888,-0.12614 -4.45107,-0.24736 -5.53631,-0.78747 -1.37731,-0.68547 -2.22487,-1.68574 -2.59255,-3.05967 -0.16269,-0.60791 -0.21032,-1.11969 -0.18625,-2.0012 0.0236,-0.86304 0.0975,-1.25024 0.3737,-1.95756 0.46133,-1.18133 1.5039,-2.20833 2.7449,-2.70391 0.83039,-0.33161 2.09906,-0.43183 5.46684,-0.43187 l 2.08693,-3e-5 v 5.51953 5.51953 l -0.55147,-0.0267 c -0.30331,-0.0147 -1.11591,-0.0465 -1.80579,-0.0707 z"
         id="path2721" />
      <g
         id="slice-0-g4747"
         style="display:inline">
        <path
           d="m -88.474609,171.89878 c 0,-7.7e-4 0,-0.002 0,-0.002 0,-7.7e-4 0,-0.002 0,-0.002 z"
           style="fill:#4a00ff;stroke-width:1.91642;paint-order:stroke fill markers"
           id="path5791" />
        <path
           d=""
           style="fill:#f9f9f9;fill-opacity:1;stroke-width:0.326947;paint-order:stroke fill markers"
           id="path5793" />
      </g>
    </g>
  </g>
</svg>
