<svg
   width="48"
   height="48"
   viewBox="0 0 12.7 12.7"
   version="1.1"
   xmlns="http://www.w3.org/2000/svg"
>
   <g>
      <g transform="matrix(0.07226563,0,0,0.07226563,10.472232,-11.216058)">
         <circle
            style="fill:#232530;fill-opacity:1;stroke-width:0.147444;paint-order:stroke fill markers"
            cx="-57.042774"
            cy="243.07625"
            r="87.87027"
         />
         <path
            style="fill:#ff79c6;fill-opacity:1;stroke-width:1.15449;paint-order:stroke fill markers"
            d="m -12.780019,243.07574 v -60.4103 l -18.136627,0.002 c -21.109913,0.002 -26.586989,0.14474 -32.645908,0.85371 -5.496646,0.64302 -10.126638,2.03923 -15.257848,4.60108 -3.529875,1.76238 -5.716952,3.27265 -8.232334,5.68487 -5.265668,5.04955 -8.21472,11.34539 -9.447256,20.16852 -0.318152,2.27718 -0.273663,9.54681 0.07165,11.7602 1.650489,10.57461 7.090341,18.33817 17.457356,24.91445 1.082488,0.6867 2.096283,1.35846 2.252782,1.49274 0.436017,0.3742 0.260953,1.75719 -0.446617,3.52788 -0.817389,2.04554 -5.366518,11.08265 -10.763431,21.38217 -10.20032,19.46634 -13.516618,25.93321 -13.372838,26.07703 0.23552,0.23553 5.399627,0.34535 14.569209,0.30933 l 10.278401,-0.0403 11.40915,-22.56496 11.409137,-22.56498 8.574357,-7.7e-4 8.574331,-7.8e-4 0.09554,2.94002 c 0.05266,1.61706 0.198082,7.85417 0.323083,13.86024 0.381357,18.299 0.670429,27.83403 0.852811,28.12925 0.101408,0.16418 2.225334,0.21046 11.27975,0.24612 l 11.15486,0.0438 z m -31.538626,-3.14081 c -12.708076,-0.44542 -15.717246,-0.87345 -19.54935,-2.78067 -4.863442,-2.42045 -7.85627,-5.95255 -9.154581,-10.80404 -0.574481,-2.1466 -0.742686,-3.95375 -0.65769,-7.06647 0.08325,-3.04748 0.344301,-4.41476 1.319585,-6.91238 1.629006,-4.17142 5.310449,-7.79785 9.692549,-9.54782 2.932221,-1.17096 7.412041,-1.52485 19.304057,-1.52497 l 7.369185,-10e-5 v 19.49009 19.49011 l -1.947299,-0.0944 c -1.071021,-0.0518 -3.940398,-0.1642 -6.376456,-0.24966 z"
         />
      </g>
   </g>
</svg>
