<svg
   width="257"
   height="257"
   viewBox="0 0 67.997915 67.997919"
   version="1.1"
   xmlns="http://www.w3.org/2000/svg"
>
   <g>
      <g transform="matrix(1.0317925,0,0,1.0317925,149.52019,-160.14037)">
         <circle
            style="fill:#4a00ff;fill-opacity:1;stroke-width:0.15487;paint-order:stroke fill markers"
            cx="-111.96169"
            cy="188.15733"
            r="32.951351"
         />
         <g transform="matrix(0.51365284,0,0,0.51365284,-57.644734,28.923048)">
            <path
               style="fill:#000000;fill-opacity:1;stroke-width:0.871859;paint-order:stroke fill markers"
               d="m -70.430829,311.82732 v -45.6213 l -13.696624,10e-4 c -15.942057,10e-4 -20.078267,0.10934 -24.653917,0.64472 -4.15102,0.4856 -7.64755,1.54 -11.52259,3.4747 -2.66573,1.33093 -4.31739,2.47146 -6.21699,4.29314 -3.97658,3.81339 -6.20368,8.56795 -7.13448,15.23109 -0.24026,1.71971 -0.20666,7.20966 0.0541,8.8812 1.24646,7.98584 5.35459,13.8488 13.18366,18.81515 0.81749,0.51859 1.58309,1.02589 1.70128,1.12731 0.32928,0.28258 0.19706,1.32701 -0.33728,2.66421 -0.61728,1.54477 -4.05275,8.36952 -8.12846,16.14763 -7.70317,14.7008 -10.20762,19.5845 -10.09904,19.69312 0.17787,0.17786 4.07776,0.2608 11.00254,0.2336 l 7.76216,-0.0304 8.61608,-17.04086 8.61608,-17.04085 6.475278,-6.9e-4 6.475279,-6.7e-4 0.07227,2.22029 c 0.03973,1.22118 0.1496,5.93139 0.244,10.46712 0.288,13.81923 0.506293,21.02 0.644027,21.24294 0.07653,0.124 1.68056,0.15893 8.518373,0.18586 l 8.424064,0.0331 z m -23.817717,-2.37192 c -9.597014,-0.33637 -11.869524,-0.65962 -14.763494,-2.09992 -3.67283,-1.82792 -5.93299,-4.4953 -6.91347,-8.15912 -0.43384,-1.62109 -0.56085,-2.98584 -0.49666,-5.33653 0.0629,-2.30144 0.26,-3.33397 0.99653,-5.22016 1.23021,-3.15021 4.0104,-5.88888 7.31973,-7.21043 2.21438,-0.88429 5.5975,-1.15154 14.578244,-1.15165 l 5.565173,-8e-5 v 14.71875 14.71874 l -1.470587,-0.0712 c -0.808853,-0.0392 -2.975786,-0.124 -4.815466,-0.18853 z"
            />
            <path
               style="fill:#ff79c6;fill-opacity:1;stroke-width:0.871859;paint-order:stroke fill markers"
               d="m -74.208253,308.17999 v -45.6213 l -13.696613,10e-4 c -15.942024,0.001 -20.078244,0.10933 -24.653894,0.64472 -4.15101,0.4856 -7.64755,1.54 -11.52259,3.47469 -2.66573,1.33094 -4.31738,2.47147 -6.21698,4.29315 -3.97659,3.81339 -6.20368,8.56794 -7.13448,15.23109 -0.24027,1.71971 -0.20667,7.20965 0.0541,8.8812 1.24645,7.98584 5.35458,13.8488 13.18365,18.81515 0.81749,0.51858 1.58309,1.02589 1.70128,1.1273 0.32928,0.28259 0.19707,1.32702 -0.33728,2.66422 -0.61728,1.54477 -4.05275,8.36952 -8.12845,16.14762 -7.70318,14.7008 -10.20763,19.58451 -10.09904,19.69312 0.17786,0.17787 4.07776,0.2608 11.00253,0.2336 l 7.76216,-0.0304 8.61608,-17.04085 8.61608,-17.04085 6.47528,-7e-4 6.475253,-6.6e-4 0.07227,2.22029 c 0.03973,1.22117 0.1496,5.93139 0.244,10.46712 0.288,13.81923 0.506293,21.02 0.644026,21.24293 0.07653,0.124 1.68056,0.15894 8.518374,0.18587 l 8.424053,0.0331 z m -23.81768,-2.37192 c -9.597017,-0.33637 -11.869517,-0.65963 -14.763497,-2.09992 -3.67282,-1.82792 -5.93298,-4.49531 -6.91346,-8.15912 -0.43384,-1.62109 -0.56086,-2.98584 -0.49667,-5.33653 0.0629,-2.30144 0.26,-3.33398 0.99653,-5.22016 1.23022,-3.15022 4.0104,-5.88888 7.31974,-7.21043 2.21437,-0.88429 5.59749,-1.15155 14.578237,-1.15165 l 5.565147,-8e-5 v 14.71874 14.71875 l -1.470587,-0.0712 c -0.808826,-0.0392 -2.97576,-0.124 -4.81544,-0.18853 z"
            />
         </g>
      </g>
   </g>
</svg>
